<svg xmlns="http://www.w3.org/2000/svg" xmlns:xlink="http://www.w3.org/1999/xlink" version="1.1" id="Your_Icon" x="0px" y="0px" width="100px" height="100px" viewBox="0 0 100 100" enable-background="new 0 0 100 100" xml:space="preserve">
<path fill="#000000" d="M91.6,51.398h-9.555c0.045-0.461,0.072-0.928,0.072-1.399s-0.027-0.937-0.072-1.396H91.6  c1.437,0,2.601-1.164,2.601-2.601c0-1.436-1.164-2.6-2.601-2.6H80.523c-2.414-4.738-7.33-7.998-13.004-7.998  c-7.222,0-14.73,4.274-14.996,4.428L50,41.211l-2.472-1.351c-0.315-0.182-7.826-4.456-15.045-4.456  c-5.673,0-10.588,3.259-13.003,7.997H8.4c-1.436,0-2.6,1.164-2.6,2.6c0,1.437,1.164,2.601,2.6,2.601h9.557  c-0.044,0.461-0.07,0.928-0.07,1.4c0,0.471,0.026,0.938,0.07,1.396H8.4c-1.436,0-2.6,1.164-2.6,2.6s1.164,2.6,2.6,2.6h11.079  c2.415,4.738,7.33,7.998,13.004,7.998c7.219,0,14.729-4.273,14.995-4.428l2.523-1.379l2.472,1.352  c0.315,0.182,7.825,4.455,15.047,4.455c5.672,0,10.588-3.259,13.002-7.996H91.6c1.437,0,2.601-1.164,2.601-2.601  C94.199,52.562,93.035,51.398,91.6,51.398z M76.916,49.999c0,0.478-0.047,0.942-0.117,1.399h-5.832c-0.01,0-0.822-0.008-2.221-0.358  c-1.42-0.358-2.393-0.892-2.428-0.91L66.08,50l0.264-0.144c0.01-0.005,0.982-0.538,2.404-0.896c1.428-0.358,2.232-0.359,2.236-0.358  H76.8C76.869,49.06,76.916,49.522,76.916,49.999z M67.52,40.604c2.611,0,4.978,1.072,6.681,2.798h-3.16  c-0.226,0.01-1.506-0.002-3.56,0.516c-2.104,0.529-3.535,1.321-3.655,1.39l-3.162,1.729l-5.242-2.863  C56.852,43.409,62.443,40.604,67.52,40.604z M50.002,52.864L44.761,50l5.24-2.864L55.24,50L50.002,52.864z M32.483,40.604  c5.011,0,10.581,2.767,12.096,3.569l-5.237,2.863l-3.127-1.709c-0.156-0.089-1.587-0.881-3.692-1.41  c-2.052-0.517-3.318-0.521-3.508-0.517h-3.21C27.509,41.677,29.873,40.604,32.483,40.604z M23.085,50.002  c0-0.478,0.047-0.942,0.117-1.4h5.831c0.009,0,0.821,0.007,2.222,0.359c1.42,0.357,2.395,0.891,2.429,0.91L33.921,50l-0.263,0.144  c-0.009,0.005-0.983,0.538-2.403,0.896c-1.43,0.358-2.23,0.367-2.241,0.358h-5.812C23.132,50.941,23.085,50.478,23.085,50.002z   M32.483,59.396c-2.611,0-4.977-1.073-6.681-2.799h3.159c0.019,0,0.047,0,0.081,0c0.372,0,1.596-0.043,3.479-0.517  c2.105-0.529,3.536-1.321,3.655-1.39l3.164-1.729l5.239,2.863C43.138,56.593,37.525,59.396,32.483,59.396z M67.52,59.396  c-5.014,0-10.582-2.767-12.096-3.57l5.238-2.863l3.127,1.709c0.156,0.089,1.586,0.881,3.689,1.41  c1.899,0.479,3.127,0.518,3.446,0.518c0.025,0,0.046,0,0.06,0h3.215C72.494,58.323,70.129,59.396,67.52,59.396z"/>
</svg>